<svg xmlns="http://www.w3.org/2000/svg" xmlns:xlink="http://www.w3.org/1999/xlink" xmlns:lucid="lucid" width="595.65" height="462.2"><g transform="translate(0 0)" lucid:page-tab-id="HWEp-vi-RSFO"><path d="M0 0h595.65v462.2H0z" fill="#fff"/><path d="M81 20h160v60H81zm16 0v60m128-60v60" stroke="#333" stroke-width="2" fill="#fff"/><use xlink:href="#a" transform="matrix(1,0,0,1,101,20) translate(20.574999999999996 33.6)"/><path d="M81 140h160v60H81zm16 0v60m128-60v60" stroke="#333" stroke-width="2" fill="#fff"/><use xlink:href="#b" transform="matrix(1,0,0,1,101,140) translate(23.574999999999996 33.6)"/><path d="M81 260h160v60H81zm16 0v60m128-60v60" stroke="#333" stroke-width="2" fill="#fff"/><use xlink:href="#c" transform="matrix(1,0,0,1,101,260) translate(20.549999999999997 33.6)"/><path d="M81 380h160v60H81zm16 0v60m128-60v60" stroke="#333" stroke-width="2" fill="#fff"/><use xlink:href="#d" transform="matrix(1,0,0,1,101,380) translate(19.549999999999997 33.6)"/><path d="M421 200h160v60H421zm16 0v60m128-60v60" stroke="#333" stroke-width="2" fill="#fff"/><use xlink:href="#e" transform="matrix(1,0,0,1,441,200) translate(17.074999999999996 33.6)"/><path d="M161 378.5V344" stroke="#333" fill="none"/><path d="M161.5 379h-1v-.5h1z" fill="#333"/><path d="M161 321.98l12.73 21.52h-25.46z" stroke="#333" fill="#fff"/><path d="M161 258.5V224" stroke="#333" fill="none"/><path d="M161.5 259h-1v-.5h1z" fill="#333"/><path d="M161 201.98l12.73 21.52h-25.46z" stroke="#333" fill="#fff"/><path d="M161 138.5V104" stroke="#333" fill="none"/><path d="M161.5 139h-1v-.5h1z" fill="#333"/><path d="M161 81.98l12.73 21.52h-25.46z" stroke="#333" fill="#fff"/><path d="M331.5 396.03l-.42 3.2-1.24 3-2 2.6-2.6 2-3 1.25-3.2.42h-60.66v-1h60.6l3-.4 2.76-1.14 2.4-1.83 1.82-2.4 1.14-2.75.4-3V329.8h1zm88-165.53h-76.47l-3 .4-2.77 1.14-2.4 1.83-1.82 2.4-1.14 2.75-.4 3v66.18h-1v-66.23l.42-3.2 1.24-3 2-2.6 2.6-2 3-1.25 3.2-.42h76.54z" fill="#333"/><path d="M420 230.5h-.5v-1h.5zM257.88 412.64L243.62 408l14.26-4.64z" fill="#333"/><path d="M258.38 413.32L242 408l16.38-5.32zM245.24 408l12.14 3.95v-7.9z" fill="#333"/><use xlink:href="#f" transform="matrix(1,0,0,1,298.525,308.2) translate(0.005000000000002558 14.4)"/><path d="M331.5 217.97l.4 3 1.14 2.77 1.83 2.4 2.4 1.82 2.75 1.14 3 .4h46.6v1h-46.65l-3.2-.42-3-1.24-2.6-2-2-2.6-1.25-3-.42-3.2v-92.35h1zm-9.26-166.05l3 1.24 2.6 2 2 2.6 1.24 3 .42 3.2v40.13h-1V64.02l-.4-3-1.14-2.77-1.83-2.4-2.4-1.82L322 52.9l-3-.4h-60.6v-1h60.65z" fill="#333"/><path d="M419.3 230l-14.86 14.85L389.3 230l15.14-14.85z" fill="#333"/><path d="M420 230l-15.55 15.55L388.58 230l15.87-15.55zm-30 0l14.44 14.15L418.6 230l-14.16-14.15zM257.88 56.64L243.62 52l14.26-4.64z" fill="#333"/><path d="M258.38 57.32L242 52l16.38-5.32zM245.24 52l12.14 3.95v-7.9z" fill="#333"/><use xlink:href="#g" transform="matrix(1,0,0,1,294.55,104.09019212882727) translate(0.005000000000002558 14.4)"/><path d="M40.5 400.34l.34 2.48 1.24 2.67 1.98 2.1 2.58 1.4 3.07.5-.16 1-3.23-.55-2.85-1.54-2.2-2.34-1.38-2.95-.37-2.7V240.8h1zM63.62 50.5h-11.6l-3 .4-2.76 1.14-2.4 1.83-1.82 2.4L40.9 59l-.4 3V219.2h-1V61.97l.42-3.2 1.24-3 2-2.6 2.6-2 3-1.25 3.2-.42h11.66z" fill="#333"/><path d="M79.3 410l-14.86 14.85L49.3 410l15.14-14.85z" fill="#333"/><path d="M80 410l-15.55 15.55L48.58 410l15.87-15.55zm-30 0l14.44 14.15L78.6 410l-14.16-14.15zM78.38 50l-14.26 4.64v-9.28z" fill="#333"/><path d="M80 50l-16.38 5.32V44.68zm-15.38 3.95L76.76 50l-12.14-3.95z" fill="#333"/><use xlink:href="#h" transform="matrix(1,0,0,1,13.024999999999999,219.2) translate(0.004999999999999005 14.4)"/><defs><path fill="#333" d="M212-179c-10-28-35-45-73-45-59 0-87 40-87 99 0 60 29 101 89 101 43 0 62-24 78-52l27 14C228-24 195 4 139 4 59 4 22-46 18-125c-6-104 99-153 187-111 19 9 31 26 39 46" id="i"/><path fill="#333" d="M190 0L58-211 59 0H30v-248h39L202-35l-2-213h31V0h-41" id="j"/><path fill="#333" d="M100-194c63 0 86 42 84 106H49c0 40 14 67 53 68 26 1 43-12 49-29l28 8c-11 28-37 45-77 45C44 4 14-33 15-96c1-61 26-98 85-98zm52 81c6-60-76-77-97-28-3 7-6 17-6 28h103" id="k"/><path fill="#333" d="M59-47c-2 24 18 29 38 22v24C64 9 27 4 27-40v-127H5v-23h24l9-43h21v43h35v23H59v120" id="l"/><path fill="#333" d="M205 0l-28-72H64L36 0H1l101-248h38L239 0h-34zm-38-99l-47-123c-12 45-31 82-46 123h93" id="m"/><path fill="#333" d="M85-194c31 0 48 13 60 33l-1-100h32l1 261h-30c-2-10 0-23-3-31C134-8 116 4 85 4 32 4 16-35 15-94c0-66 23-100 70-100zm9 24c-40 0-46 34-46 75 0 40 6 74 45 74 42 0 51-32 51-76 0-42-9-74-50-73" id="n"/><path fill="#333" d="M114-163C36-179 61-72 57 0H25l-1-190h30c1 12-1 29 2 39 6-27 23-49 58-41v29" id="o"/><g id="a"><use transform="matrix(0.05,0,0,0.05,0,0)" xlink:href="#i"/><use transform="matrix(0.05,0,0,0.05,12.950000000000001,0)" xlink:href="#j"/><use transform="matrix(0.05,0,0,0.05,25.900000000000002,0)" xlink:href="#k"/><use transform="matrix(0.05,0,0,0.05,35.900000000000006,0)" xlink:href="#l"/><use transform="matrix(0.05,0,0,0.05,40.900000000000006,0)" xlink:href="#m"/><use transform="matrix(0.05,0,0,0.05,52.900000000000006,0)" xlink:href="#n"/><use transform="matrix(0.05,0,0,0.05,62.900000000000006,0)" xlink:href="#n"/><use transform="matrix(0.05,0,0,0.05,72.9,0)" xlink:href="#o"/></g><path fill="#333" d="M185-189c-5-48-123-54-124 2 14 75 158 14 163 119 3 78-121 87-175 55-17-10-28-26-33-46l33-7c5 56 141 63 141-1 0-78-155-14-162-118-5-82 145-84 179-34 5 7 8 16 11 25" id="p"/><path fill="#333" d="M108 0H70L1-190h34L89-25l56-165h34" id="q"/><path fill="#333" d="M24-231v-30h32v30H24zM24 0v-190h32V0H24" id="r"/><path fill="#333" d="M96-169c-40 0-48 33-48 73s9 75 48 75c24 0 41-14 43-38l32 2c-6 37-31 61-74 61-59 0-76-41-82-99-10-93 101-131 147-64 4 7 5 14 7 22l-32 3c-4-21-16-35-41-35" id="s"/><g id="b"><use transform="matrix(0.05,0,0,0.05,0,0)" xlink:href="#i"/><use transform="matrix(0.05,0,0,0.05,12.950000000000001,0)" xlink:href="#p"/><use transform="matrix(0.05,0,0,0.05,24.950000000000003,0)" xlink:href="#k"/><use transform="matrix(0.05,0,0,0.05,34.95,0)" xlink:href="#o"/><use transform="matrix(0.05,0,0,0.05,40.900000000000006,0)" xlink:href="#q"/><use transform="matrix(0.05,0,0,0.05,49.900000000000006,0)" xlink:href="#r"/><use transform="matrix(0.05,0,0,0.05,53.85,0)" xlink:href="#s"/><use transform="matrix(0.05,0,0,0.05,62.85,0)" xlink:href="#k"/></g><path fill="#333" d="M135-143c-3-34-86-38-87 0 15 53 115 12 119 90S17 21 10-45l28-5c4 36 97 45 98 0-10-56-113-15-118-90-4-57 82-63 122-42 12 7 21 19 24 35" id="t"/><g id="c"><use transform="matrix(0.05,0,0,0.05,0,0)" xlink:href="#i"/><use transform="matrix(0.05,0,0,0.05,12.950000000000001,0)" xlink:href="#m"/><use transform="matrix(0.05,0,0,0.05,24.950000000000003,0)" xlink:href="#n"/><use transform="matrix(0.05,0,0,0.05,34.95,0)" xlink:href="#n"/><use transform="matrix(0.05,0,0,0.05,44.95,0)" xlink:href="#o"/><use transform="matrix(0.05,0,0,0.05,50.900000000000006,0)" xlink:href="#k"/><use transform="matrix(0.05,0,0,0.05,60.900000000000006,0)" xlink:href="#t"/><use transform="matrix(0.05,0,0,0.05,69.9,0)" xlink:href="#t"/></g><path fill="#333" d="M33 0v-248h34V0H33" id="u"/><path fill="#333" d="M117-194c89-4 53 116 60 194h-32v-121c0-31-8-49-39-48C34-167 62-67 57 0H25l-1-190h30c1 10-1 24 2 32 11-22 29-35 61-36" id="v"/><path fill="#333" d="M101-234c-31-9-42 10-38 44h38v23H63V0H32v-167H5v-23h27c-7-52 17-82 69-68v24" id="w"/><path fill="#333" d="M100-194c62-1 85 37 85 99 1 63-27 99-86 99S16-35 15-95c0-66 28-99 85-99zM99-20c44 1 53-31 53-75 0-43-8-75-51-75s-53 32-53 75 10 74 51 75" id="x"/><g id="d"><use transform="matrix(0.05,0,0,0.05,0,0)" xlink:href="#i"/><use transform="matrix(0.05,0,0,0.05,12.950000000000001,0)" xlink:href="#m"/><use transform="matrix(0.05,0,0,0.05,24.950000000000003,0)" xlink:href="#n"/><use transform="matrix(0.05,0,0,0.05,34.95,0)" xlink:href="#n"/><use transform="matrix(0.05,0,0,0.05,44.95,0)" xlink:href="#o"/><use transform="matrix(0.05,0,0,0.05,50.900000000000006,0)" xlink:href="#u"/><use transform="matrix(0.05,0,0,0.05,55.900000000000006,0)" xlink:href="#v"/><use transform="matrix(0.05,0,0,0.05,65.9,0)" xlink:href="#w"/><use transform="matrix(0.05,0,0,0.05,70.9,0)" xlink:href="#x"/></g><path fill="#333" d="M240 0l2-218c-23 76-54 145-80 218h-23L58-218 59 0H30v-248h44l77 211c21-75 51-140 76-211h43V0h-30" id="y"/><path fill="#333" d="M141-36C126-15 110 5 73 4 37 3 15-17 15-53c-1-64 63-63 125-63 3-35-9-54-41-54-24 1-41 7-42 31l-33-3c5-37 33-52 76-52 45 0 72 20 72 64v82c-1 20 7 32 28 27v20c-31 9-61-2-59-35zM48-53c0 20 12 33 32 33 41-3 63-29 60-74-43 2-92-5-92 41" id="z"/><g id="e"><use transform="matrix(0.05,0,0,0.05,0,0)" xlink:href="#i"/><use transform="matrix(0.05,0,0,0.05,12.950000000000001,0)" xlink:href="#m"/><use transform="matrix(0.05,0,0,0.05,24.950000000000003,0)" xlink:href="#n"/><use transform="matrix(0.05,0,0,0.05,34.95,0)" xlink:href="#n"/><use transform="matrix(0.05,0,0,0.05,44.95,0)" xlink:href="#o"/><use transform="matrix(0.05,0,0,0.05,50.900000000000006,0)" xlink:href="#y"/><use transform="matrix(0.05,0,0,0.05,65.85000000000001,0)" xlink:href="#z"/><use transform="matrix(0.05,0,0,0.05,75.85000000000001,0)" xlink:href="#v"/></g><path fill="#333" d="M210-169c-67 3-38 105-44 169h-31v-121c0-29-5-50-35-48C34-165 62-65 56 0H25l-1-190h30c1 10-1 24 2 32 10-44 99-50 107 0 11-21 27-35 58-36 85-2 47 119 55 194h-31v-121c0-29-5-49-35-48" id="A"/><path fill="#333" d="M115-194c55 1 70 41 70 98S169 2 115 4C84 4 66-9 55-30l1 105H24l-1-265h31l2 30c10-21 28-34 59-34zm-8 174c40 0 45-34 45-75s-6-73-45-74c-42 0-51 32-51 76 0 43 10 73 51 73" id="B"/><g id="f"><use transform="matrix(0.05,0,0,0.05,0,0)" xlink:href="#A"/><use transform="matrix(0.05,0,0,0.05,14.950000000000001,0)" xlink:href="#z"/><use transform="matrix(0.05,0,0,0.05,24.950000000000003,0)" xlink:href="#B"/><use transform="matrix(0.05,0,0,0.05,34.95,0)" xlink:href="#u"/><use transform="matrix(0.05,0,0,0.05,39.95,0)" xlink:href="#v"/><use transform="matrix(0.05,0,0,0.05,49.95,0)" xlink:href="#w"/><use transform="matrix(0.05,0,0,0.05,54.95,0)" xlink:href="#x"/></g><g id="g"><use transform="matrix(0.05,0,0,0.05,0,0)" xlink:href="#A"/><use transform="matrix(0.05,0,0,0.05,14.950000000000001,0)" xlink:href="#z"/><use transform="matrix(0.05,0,0,0.05,24.950000000000003,0)" xlink:href="#B"/><use transform="matrix(0.05,0,0,0.05,34.95,0)" xlink:href="#m"/><use transform="matrix(0.05,0,0,0.05,46.95,0)" xlink:href="#n"/><use transform="matrix(0.05,0,0,0.05,56.95,0)" xlink:href="#n"/><use transform="matrix(0.05,0,0,0.05,66.95,0)" xlink:href="#o"/></g><path fill="#333" d="M84 4C-5 8 30-112 23-190h32v120c0 31 7 50 39 49 72-2 45-101 50-169h31l1 190h-30c-1-10 1-25-2-33-11 22-28 36-60 37" id="C"/><g id="h"><use transform="matrix(0.05,0,0,0.05,0,0)" xlink:href="#t"/><use transform="matrix(0.05,0,0,0.05,9,0)" xlink:href="#x"/><use transform="matrix(0.05,0,0,0.05,19,0)" xlink:href="#C"/><use transform="matrix(0.05,0,0,0.05,29,0)" xlink:href="#o"/><use transform="matrix(0.05,0,0,0.05,34.95,0)" xlink:href="#s"/><use transform="matrix(0.05,0,0,0.05,43.95,0)" xlink:href="#k"/></g></defs></g></svg>